<svg xmlns="http://www.w3.org/2000/svg" width="24" height="24" fill="none" viewBox="0 0 42 42">
  <rect width="39.176" height="39.176" x="1" y="1" stroke="#000" stroke-width="2" rx="19.588"/>
  <rect width="7.235" height="7.235" x="16.971" y="16.971" stroke="#000" rx="3.618"/>
  <path fill="#000" d="M26.353 19.765h11.529v1.647H26.353z"/>
  <path fill="#000" d="M26.353 19.765h11.529v1.647H26.353z"/>
  <path fill="#000" d="M26.353 19.765h11.529v1.647H26.353zM3.294 19.765h11.529v1.647H3.294z"/>
  <path fill="#000" d="M3.294 19.765h11.529v1.647H3.294z"/>
  <path fill="#000" d="M3.294 19.765h11.529v1.647H3.294zM21.413 26.353l.004 11.53H19.77l-.004-11.53z"/>
  <path fill="#000" d="M21.413 26.353l.004 11.53H19.77l-.004-11.53z"/>
  <path fill="#000" d="M21.413 26.353l.004 11.53H19.77l-.004-11.53zM21.406 3.294l.004 11.529h-1.647l-.004-11.529z"/>
  <path fill="#000" d="M21.406 3.294l.004 11.529h-1.647l-.004-11.529z"/>
  <path fill="#000" d="M21.406 3.294l.004 11.529h-1.647l-.004-11.529zM26.353 19.765h11.529v1.647H26.353z"/>
  <path fill="#000" d="M26.353 19.765h11.529v1.647H26.353z"/>
  <path fill="#000" d="M26.353 19.765h11.529v1.647H26.353zM3.294 19.765h11.529v1.647H3.294z"/>
  <path fill="#000" d="M3.294 19.765h11.529v1.647H3.294z"/>
  <path fill="#000" d="M3.294 19.765h11.529v1.647H3.294zM17.159 25.294L9.12 33.56 7.94 32.41l8.038-8.264z"/>
  <path fill="#000" d="M17.159 25.294L9.12 33.56 7.94 32.41l8.038-8.264z"/>
  <path fill="#000" d="M17.159 25.294L9.12 33.56 7.94 32.41l8.038-8.264zM33.237 8.766l-8.039 8.264-1.18-1.149 8.039-8.264z"/>
  <path fill="#000" d="M33.237 8.766l-8.039 8.264-1.18-1.149 8.039-8.264z"/>
  <path fill="#000" d="M33.237 8.766l-8.039 8.264-1.18-1.149 8.039-8.264zM25.294 24.02l8.261 8.04-1.148 1.181-8.262-8.042z"/>
  <path fill="#000" d="M25.294 24.02l8.261 8.04-1.148 1.181-8.262-8.042z"/>
  <path fill="#000" d="M25.294 24.02l8.261 8.04-1.148 1.181-8.262-8.042z"/>
  <g>
    <path fill="#000" d="M8.77 7.936l8.261 8.041-1.149 1.18-8.261-8.04z"/>
    <path fill="#000" d="M8.77 7.936l8.261 8.041-1.149 1.18-8.261-8.04z"/>
    <path fill="#000" d="M8.77 7.936l8.261 8.041-1.149 1.18-8.261-8.04z"/>
  </g>
  <g>
    <path fill="#000" d="M21.413 26.353l.004 11.53H19.77l-.004-11.53z"/>
    <path fill="#000" d="M21.413 26.353l.004 11.53H19.77l-.004-11.53z"/>
    <path fill="#000" d="M21.413 26.353l.004 11.53H19.77l-.004-11.53z"/>
  </g>
  <g>
    <path fill="#000" d="M21.406 3.294l.004 11.529h-1.647l-.004-11.529z"/>
    <path fill="#000" d="M21.406 3.294l.004 11.529h-1.647l-.004-11.529z"/>
    <path fill="#000" d="M21.406 3.294l.004 11.529h-1.647l-.004-11.529z"/>
  </g>
  <g>
    <path fill="#000" d="M26.353 19.765h11.529v1.647H26.353z"/>
    <path fill="#000" d="M26.353 19.765h11.529v1.647H26.353z"/>
    <path fill="#000" d="M26.353 19.765h11.529v1.647H26.353z"/>
  </g>
  <g>
    <path fill="#000" d="M3.294 19.765h11.529v1.647H3.294z"/>
    <path fill="#000" d="M3.294 19.765h11.529v1.647H3.294z"/>
    <path fill="#000" d="M3.294 19.765h11.529v1.647H3.294z"/>
  </g>
  <g>
    <path fill="#000" d="M17.159 25.294L9.12 33.56 7.94 32.41l8.038-8.264z"/>
    <path fill="#000" d="M17.159 25.294L9.12 33.56 7.94 32.41l8.038-8.264z"/>
    <path fill="#000" d="M17.159 25.294L9.12 33.56 7.94 32.41l8.038-8.264z"/>
  </g>
  <g>
    <path fill="#000" d="M33.237 8.766l-8.039 8.264-1.18-1.149 8.039-8.264z"/>
    <path fill="#000" d="M33.237 8.766l-8.039 8.264-1.18-1.149 8.039-8.264z"/>
    <path fill="#000" d="M33.237 8.766l-8.039 8.264-1.18-1.149 8.039-8.264z"/>
  </g>
  <g>
    <path fill="#000" d="M25.294 24.02l8.261 8.04-1.148 1.181-8.262-8.042z"/>
    <path fill="#000" d="M25.294 24.02l8.261 8.04-1.148 1.181-8.262-8.042z"/>
    <path fill="#000" d="M25.294 24.02l8.261 8.04-1.148 1.181-8.262-8.042z"/>
  </g>
  <g>
    <path fill="#000" d="M8.77 7.936l8.261 8.041-1.149 1.18-8.261-8.04z"/>
    <path fill="#000" d="M8.77 7.936l8.261 8.041-1.149 1.18-8.261-8.04z"/>
    <path fill="#000" d="M8.77 7.936l8.261 8.041-1.149 1.18-8.261-8.04z"/>
  </g>
  <g>
    <path fill="#000" d="M19.104 26.22l-4.486 10.62-1.517-.641 4.486-10.62z"/>
    <path fill="#000" d="M19.104 26.22l-4.486 10.62-1.517-.641 4.486-10.62z"/>
    <path fill="#000" d="M19.104 26.22l-4.486 10.62-1.517-.641 4.486-10.62z"/>
  </g>
  <g>
    <path fill="#000" d="M28.075 4.978l-4.485 10.62-1.517-.64 4.485-10.621z"/>
    <path fill="#000" d="M28.075 4.978l-4.485 10.62-1.517-.64 4.485-10.621z"/>
    <path fill="#000" d="M28.075 4.978l-4.485 10.62-1.517-.64 4.485-10.621z"/>
  </g>
  <g>
    <path fill="#000" d="M26.22 22.074l10.618 4.49-.641 1.516-10.62-4.489z"/>
    <path fill="#000" d="M26.22 22.074l10.618 4.49-.641 1.516-10.62-4.489z"/>
    <path fill="#000" d="M26.22 22.074l10.618 4.49-.641 1.516-10.62-4.489z"/>
  </g>
  <g>
    <path fill="#000" d="M4.98 13.096l10.62 4.49-.642 1.516-10.62-4.489z"/>
    <path fill="#000" d="M4.98 13.096l10.62 4.49-.642 1.516-10.62-4.489z"/>
    <path fill="#000" d="M4.98 13.096l10.62 4.49-.642 1.516-10.62-4.489z"/>
  </g>
  <g>
    <path fill="#000" d="M15.597 23.588L4.975 28.07l-.64-1.518 10.622-4.481z"/>
    <path fill="#000" d="M15.597 23.588L4.975 28.07l-.64-1.518 10.622-4.481z"/>
    <path fill="#000" d="M15.597 23.588L4.975 28.07l-.64-1.518 10.622-4.481z"/>
  </g>
  <g>
    <path fill="#000" d="M36.842 14.624L26.22 19.106l-.64-1.518 10.622-4.482z"/>
    <path fill="#000" d="M36.842 14.624L26.22 19.106l-.64-1.518 10.622-4.482z"/>
    <path fill="#000" d="M36.842 14.624L26.22 19.106l-.64-1.518 10.622-4.482z"/>
  </g>
  <g>
    <path fill="#000" d="M23.587 25.58l4.478 10.623-1.518.64L22.07 26.22z"/>
    <path fill="#000" d="M23.587 25.58l4.478 10.623-1.518.64L22.07 26.22z"/>
    <path fill="#000" d="M23.587 25.58l4.478 10.623-1.518.64L22.07 26.22z"/>
  </g>
  <g>
    <path fill="#000" d="M14.63 4.332l4.478 10.624-1.518.64-4.478-10.624z"/>
    <path fill="#000" d="M14.63 4.332l4.478 10.624-1.518.64-4.478-10.624z"/>
    <path fill="#000" d="M14.63 4.332l4.478 10.624-1.518.64-4.478-10.624z"/>
  </g>
</svg>
