<svg xmlns="http://www.w3.org/2000/svg" width="80" height="80" fill="none" viewBox="0 0 80 80">
  <path fill="#F99852" fill-rule="evenodd" d="M6.016 52.684a4 4 0 004 4c2.209 0-.557-1.791-.557-4 0-2.21 2.766-4 .557-4a4 4 0 00-4 4zm4-5a5 5 0 100 10 5 5 0 000-10z" clip-rule="evenodd"/>
  <rect width="15.651" height="15.651" x="2.19" y="44.858" stroke="#F99852" stroke-width="2" rx="7.826"/>
  <path fill="#3FA2C1" fill-rule="evenodd" d="M60.725 50.288a6.532 6.532 0 006.532 6.532c3.607 0-.91-2.925-.91-6.532 0-3.608 4.517-6.532.91-6.532a6.532 6.532 0 00-6.532 6.532zm6.532-8.165a8.165 8.165 0 100 16.33 8.165 8.165 0 000-16.33z" clip-rule="evenodd"/>
  <rect width="21.107" height="21.107" x="56.703" y="39.734" stroke="#3FA2C1" stroke-width="2" rx="10.553"/>
  <path fill="#F99852" fill-rule="evenodd" d="M27.965 45.864c0 6.297 2.748 7.362 4.135 7.737 2.873.776 1.04-5.22 2.425-9.734 1.897-6.185 8.965-8.52 2.668-8.52-6.296 0-9.228 4.22-9.228 10.517zm9.525-12.34c-7.051 0-11.567 5.29-11.567 12.34 0 7.051 3.285 9.029 8.602 10.767 2.113-6.002 7.024-22.763 7.04-22.75.014.013-3.19-.356-4.075-.356z" clip-rule="evenodd"/>
  <path fill="#3FA2C1" fill-rule="evenodd" d="M47.13 49.261c-.007-4.375-1.972-5.731-3.252-6.075-3.594-.966-1.576 3.46-2.546 7.519-.955 3.206-5.775 5.887-1.4 5.88 4.375-.006 7.203-2.949 7.197-7.324zm-7.198 8.883a8.87 8.87 0 008.858-8.883c-.007-4.9-2.76-7.898-7.66-7.89-1.463 4.171-5.392 16.778-5.397 16.773-.01-.01.307.006 4.199 0z" clip-rule="evenodd"/>
  <path stroke="#3FA2C1" stroke-width="2" d="M41.82 39.516c2.602.15 4.73 1.19 6.243 2.81 1.647 1.762 2.622 4.27 2.626 7.214.008 5.78-4.67 10.47-10.449 10.479h-.043c-1.874 0-3.564 0-4.718-.072a14.789 14.789 0 01-.316-.023c.034-.09.07-.184.105-.282.24-.655.545-1.549.893-2.593.695-2.09 1.568-4.817 2.428-7.518l.618-1.945c.64-2.013 1.247-3.922 1.74-5.442a142.634 142.634 0 01.872-2.628z"/>
  <path stroke="#F99852" stroke-linecap="round" d="M36.387 19.91h-2.373"/>
  <path fill="#F99852" stroke="#F99852" stroke-linecap="round" d="M20.48 24.547a1 1 0 011.377-.324l5.085 2.922-2.38 1.19-3.759-2.412a1 1 0 01-.323-1.376z"/>
  <path fill="#3FA2C1" stroke="#3FA2C1" d="M70.502 26.665a3.505 3.505 0 01-.235 5.17l-.64-.768v1h-2.81a1 1 0 110-2h2.395a1.506 1.506 0 00-.012-1.863h-5.324l2.608 10.944-1.804.332-.818-2.88-13.505 7.912-1.044-1.634 14.073-8.231-.514-2.112H42.728l.681-2h18.976l-1.054-4.33h8.71l.46.46z"/>
  <path fill="#F99852" stroke="#F99852" stroke-linecap="round" d="M37.563 18.16a1 1 0 011 1v9.992l-2 .237v-1.877l-2.686.144a16.403 16.403 0 00-15.406 14.38c-.2 1.632-1.018 3.449-1.985 4.78l-1.412-1.437a7.702 7.702 0 001.412-3.587A18.403 18.403 0 0133.771 25.66l2.792-.15v-6.35a1 1 0 011-1z"/>
  <path stroke="#F99852" stroke-width="2" d="M33.26 59.49c-5.017-.632-10.68-5.783-10.68-14.08 0-8.56 6.94-15.499 15.499-15.499.762 0 2.11.107 3.268.275.443.064.836.134 1.146.204l-.181.635c-.251.869-.61 2.087-1.045 3.537-.869 2.9-2.035 6.722-3.222 10.528-1.188 3.807-2.396 7.592-3.35 10.42a92.855 92.855 0 01-1.197 3.385c-.09.236-.17.434-.238.595zm9.42-29.8v.005c.002-.017.004-.02 0-.006z"/>
</svg>